<?xml version="1.0" encoding="UTF-8" standalone="no"?>
<svg width="44px" height="44px" viewBox="0 0 44 44" version="1.1" xmlns="http://www.w3.org/2000/svg" xmlns:xlink="http://www.w3.org/1999/xlink" xmlns:sketch="http://www.bohemiancoding.com/sketch/ns">
    <!-- Generator: Sketch 3.3.2 (12043) - http://www.bohemiancoding.com/sketch -->
    <title>icon--leaderboard</title>
    <desc>Created with Sketch.</desc>
    <defs></defs>
    <g id="Page-1" stroke="none" stroke-width="1" fill="none" fill-rule="evenodd" sketch:type="MSPage">
        <g id="Dashboard" sketch:type="MSArtboardGroup" transform="translate(-259.000000, -1252.000000)" fill="#84849D">
            <g id="MENU--sm" sketch:type="MSLayerGroup" transform="translate(-1.000000, 1242.000000)">
                <g id="icon--leaderboard" transform="translate(260.000000, 10.000000)" sketch:type="MSShapeGroup">
                    <g id="Group">
                        <path d="M43.0822857,34.5068571 C41.2114286,31.3108571 39.3594286,28.1028571 37.4491429,24.9291429 C37.0508571,24.2668571 36.9902857,23.7508571 37.3051429,23.028 C38.8388571,19.4971429 39.0365714,15.8588571 37.9394286,12.1702857 C35.4548571,3.82 26.8497143,-1.13657143 18.192,0.876571429 C8.22342857,3.19428571 2.71885714,13.7582857 6.79028571,23.1588571 C7.06571429,23.7942857 7.00457143,24.2417143 6.66628571,24.8091429 C4.752,28.0165714 2.87428571,31.2462857 0.986857143,34.4691429 C0.814285714,34.7645714 0.658857143,35.0702857 0.476,35.4057143 C0.746857143,35.4885714 0.953142857,35.5697143 1.16742857,35.6131429 C3.46171429,36.0788571 5.75542857,36.5468571 8.05371429,36.9937143 C8.69485714,37.1182857 9.20342857,37.3657143 9.65085714,37.8874286 C11.0954286,39.5685714 12.5988571,41.1982857 14.0811429,42.8474286 C14.2897143,43.0788571 14.5085714,43.3022857 14.7674286,43.5765714 C14.9891429,43.224 15.1805714,42.9377143 15.3548571,42.64 C16.9731429,39.8822857 18.6222857,37.1417143 20.1851429,34.3531429 C20.6782857,33.4725714 21.1537143,32.9445714 22.2794286,33.0725714 C22.892,33.1422857 23.2268571,33.2748571 23.5314286,33.8051429 C25.2365714,36.7691429 26.9771429,39.7114286 28.7097143,42.6594286 C28.8782857,42.9462857 29.0691429,43.2205714 29.3165714,43.6045714 C29.6,43.2771429 29.8005714,43.0382857 30.0085714,42.8062857 C31.4874286,41.1542857 32.9805714,39.5148571 34.4382857,37.8451429 C34.8354286,37.3908571 35.2794286,37.1274286 35.8645714,37.0148571 C37.8845714,36.628 39.8994286,36.2171429 41.9148571,35.808 C42.4571429,35.6982857 42.9948571,35.56 43.6017143,35.42 C43.3925714,35.0525714 43.2405714,34.7777143 43.0822857,34.5068571 L43.0822857,34.5068571 Z M14.4548571,38.7274286 C13.2491429,37.5691429 12.1222857,36.508 11.0211429,35.4205714 C10.6257143,35.0297143 10.1914286,34.7817143 9.64971429,34.6365714 C8.09771429,34.22 6.55885714,33.7531429 4.88742857,33.2691429 C6.18342857,31.0548571 7.43771429,28.9108571 8.77485714,26.6257143 C11.2182857,29.6422857 14.2485714,31.6371429 18.0257143,32.6314286 C16.8114286,34.704 15.6542857,36.6805714 14.4548571,38.7274286 L14.4548571,38.7274286 Z M21.9765714,30.136 C14.5485714,30.1171429 8.55085714,24.0782857 8.55428571,16.6205714 C8.55714286,9.10857143 14.5565714,3.11828571 22.0725714,3.12228571 C29.4857143,3.12628571 35.5131429,9.176 35.5245714,16.6217143 C35.536,24.072 29.4377143,30.1548571 21.9765714,30.136 L21.9765714,30.136 Z M38.2925714,33.5325714 C37.108,33.8737143 35.9268571,34.2325714 34.7314286,34.528 C33.968,34.7165714 33.3514286,35.0725714 32.7982857,35.636 C31.7817143,36.6725714 30.7091429,37.6542857 29.5942857,38.7211429 C28.3994286,36.6857143 27.2508571,34.7297143 26.0268571,32.6434286 C29.7451429,31.632 32.8137143,29.696 35.2605714,26.6085714 C36.5788571,28.8588571 37.832,30.9977143 39.1365714,33.224 C38.7977143,33.3497143 38.5502857,33.4582857 38.2925714,33.5325714 L38.2925714,33.5325714 Z" id="Shape"></path>
                        <path d="M22.0937143,7.16514286 C16.9022857,7.12628571 12.6091429,11.3508571 12.5788571,16.5297143 C12.548,21.7948571 16.7457143,26.0525714 21.9988571,26.0822857 C27.1822857,26.1131429 31.4342857,21.8834286 31.4588571,16.6725714 C31.4834286,11.4571429 27.2937143,7.204 22.0937143,7.16514286 L22.0937143,7.16514286 Z M21.9582857,23.3588571 C18.2457143,23.3188571 15.2668571,20.3245714 15.2657143,16.6314286 C15.264,12.9114286 18.3251429,9.856 22.0405714,9.87028571 C25.7765714,9.88457143 28.7742857,12.9154286 28.7605714,16.6651429 C28.7457143,20.4131429 25.7114286,23.3994286 21.9582857,23.3588571 L21.9582857,23.3588571 Z" id="Shape"></path>
                    </g>
                </g>
            </g>
        </g>
    </g>
</svg>