<?xml version="1.0" encoding="UTF-8" standalone="no"?>
<svg width="43px" height="44px" viewBox="0 0 43 44" version="1.1" xmlns="http://www.w3.org/2000/svg" xmlns:xlink="http://www.w3.org/1999/xlink" xmlns:sketch="http://www.bohemiancoding.com/sketch/ns">
    <!-- Generator: Sketch 3.3.2 (12043) - http://www.bohemiancoding.com/sketch -->
    <title>icon--compare</title>
    <desc>Created with Sketch.</desc>
    <defs></defs>
    <g id="Page-1" stroke="none" stroke-width="1" fill="none" fill-rule="evenodd" sketch:type="MSPage">
        <g id="Dashboard" sketch:type="MSArtboardGroup" transform="translate(-446.000000, -1249.000000)">
            <g id="MENU--sm" sketch:type="MSLayerGroup" transform="translate(-1.000000, 1242.000000)">
                <g id="icon--compare" transform="translate(447.000000, 7.000000)" sketch:type="MSShapeGroup">
                    <g id="Group">
                        <path d="M26.6761702,38.3165106 L24.0085532,38.3165106 L18.5970213,38.3165106 L15.9748085,38.3165106 C15.2272766,38.3165106 14.5391915,39.126766 14.5391915,40.9785106 L14.5391915,41.0225106 L19.9507234,41.0225106 L28.0673191,41.0225106 L28.0673191,40.9785106 C28.0673191,39.127234 27.4241702,38.3165106 26.6761702,38.3165106 L26.6761702,38.3165106 Z" id="Shape" fill="#84849D"></path>
                        <path d="M24.0085532,5.84731915 L24.0085532,1.78948936 C24.0085532,1.04242553 21.3034894,0.436723404 21.3034894,0.436723404 C21.3034894,0.436723404 18.5974894,1.04242553 18.5974894,1.78948936 L18.5974894,5.84731915 C18.5974894,5.84731915 19.8580426,5.20604255 21.3034894,5.20604255 C22.7484681,5.20604255 24.0085532,5.84731915 24.0085532,5.84731915 L24.0085532,5.84731915 Z" id="Shape" fill="#84849D"></path>
                        <path d="M26.6382553,35.6100426 L24.0085532,35.6100426 L24.0085532,19.3759149 C24.0085532,19.3759149 22.6178723,20.1061277 21.3034894,20.1061277 C19.9891064,20.1061277 18.5974894,19.3759149 18.5974894,19.3759149 L18.5974894,35.6105106 L15.9752766,35.6105106 C13.9138298,35.6105106 11.8331915,37.2703404 11.8331915,40.9789787 L11.8331915,42.3326809 C11.8331915,43.0802128 12.4388936,43.6957447 13.1864255,43.7074468 L14.5396596,43.7285106 L28.0673191,43.7285106 L29.4200851,43.7285106 C30.1671489,43.7285106 30.7728511,43.1228085 30.7728511,42.3757447 L30.7728511,41.0229787 C30.772383,37.2698723 28.6954894,35.6100426 26.6382553,35.6100426 L26.6382553,35.6100426 Z" id="Shape" stroke="#84849D" stroke-width="3"></path>
                        <path d="M41.5645532,22.1053191 L36.8448511,12.1210638 C37.0508085,11.8210213 37.1430213,11.4451489 37.0564255,11.0613191 C36.8907234,10.3320426 36.1586383,9.87753191 35.436383,10.0408936 L26.6565106,12.0363404 C26.3658298,9.32238298 24.0946809,7.20055319 21.3030213,7.20055319 C18.3138298,7.20055319 15.8914894,9.62429787 15.8914894,12.6125532 C15.8914894,13.2449362 16.0202128,13.8440851 16.2205532,14.4090638 L6.12255319,16.703617 C5.3932766,16.8697872 4.93689362,17.5939149 5.10212766,18.3236596 C5.15268085,18.5478723 5.27110638,18.7346383 5.412,18.8970638 L1.41455319,28.8864681 C0.768595745,28.9894468 0.266340426,29.5230638 0.266340426,30.1985106 C0.266340426,32.4841702 3.59114894,35.3825532 7.32880851,35.3825532 C11.0641277,35.3825532 14.3884681,32.4841702 14.3884681,30.1985106 C14.3884681,29.4650213 13.8033617,28.875234 13.0745532,28.853234 L7.77770213,19.1025532 L17.9140851,16.8005106 C18.8437021,17.5527234 20.0129787,18.023617 21.3030213,18.023617 C23.4613617,18.023617 25.311234,16.7494894 26.1790638,14.9211489 L34.1631915,13.1059149 L29.9073617,22.1053191 C29.2192766,22.1708511 28.6748936,22.7292766 28.6748936,23.4342128 C28.6748936,25.7203404 32.0001702,28.6182553 35.7378298,28.6182553 C39.473617,28.6182553 42.7970213,25.7203404 42.7970213,23.4342128 C42.7974894,22.7292766 42.2540426,22.170383 41.5645532,22.1053191 L41.5645532,22.1053191 Z M11.5317447,28.8462128 L2.88808511,28.8462128 L6.55412766,19.6829787 L11.5317447,28.8462128 L11.5317447,28.8462128 Z M24.0066809,12.638766 C23.9954468,13.6268936 23.4543404,14.4774043 22.6557872,14.9426809 C22.2565106,15.1753191 21.7991915,15.3185532 21.3030213,15.3185532 C20.8073191,15.3185532 20.3490638,15.1753191 19.9502553,14.9426809 C19.4915319,14.6758723 19.1203404,14.2808085 18.8853617,13.8019574 C18.7074894,13.4410638 18.5970213,13.0413191 18.5970213,12.6120851 C18.5970213,11.1179574 19.8084255,9.90608511 21.3030213,9.90608511 C22.7966809,9.90608511 24.0080851,11.1179574 24.0080851,12.6120851 C24.0085532,12.6214468 24.0066809,12.6294043 24.0066809,12.638766 L24.0066809,12.638766 Z M31.4164681,22.0819149 L35.7364255,12.9439574 L40.0568511,22.0819149 L31.4164681,22.0819149 L31.4164681,22.0819149 Z" id="Shape" fill="#84849D"></path>
                    </g>
                </g>
            </g>
        </g>
    </g>
</svg>