<?xml version="1.0" encoding="UTF-8" standalone="no"?>
<svg width="44px" height="28px" viewBox="0 0 44 28" version="1.1" xmlns="http://www.w3.org/2000/svg" xmlns:xlink="http://www.w3.org/1999/xlink" xmlns:sketch="http://www.bohemiancoding.com/sketch/ns">
    <!-- Generator: Sketch 3.3.2 (12043) - http://www.bohemiancoding.com/sketch -->
    <title>icon--dashboard</title>
    <desc>Created with Sketch.</desc>
    <defs></defs>
    <g id="Page-1" stroke="none" stroke-width="1" fill="none" fill-rule="evenodd" sketch:type="MSPage">
        <g id="Dashboard" sketch:type="MSArtboardGroup" transform="translate(-71.000000, -1258.000000)" fill="#84849D">
            <g id="MENU--sm" sketch:type="MSLayerGroup" transform="translate(-1.000000, 1242.000000)">
                <g id="icon--dashboard" transform="translate(72.000000, 16.000000)" sketch:type="MSShapeGroup">
                    <path d="M39.7697143,0 C37.4843333,0 35.6248095,1.85952381 35.6248095,4.14490476 C35.6248095,4.91019048 35.8369524,5.62466667 36.1999524,6.24066667 L29.5879048,12.8521905 C28.996,12.526381 28.3171429,12.3399048 27.5953333,12.3399048 C25.9238571,12.3399048 24.4828571,13.3367143 23.8280952,14.7656667 L17.3878571,13.5142857 C16.9672381,11.671 15.3182857,10.2907619 13.3498095,10.2907619 C11.0644286,10.2907619 9.20490476,12.1502857 9.20490476,14.4356667 C9.20490476,15.1213333 9.37514286,15.7677143 9.67109524,16.337619 L5.89233333,20.1174286 C5.36014286,19.868619 4.76980952,19.7261429 4.14542857,19.7261429 C1.85952381,19.725619 0,21.5851429 0,23.8705238 C0,26.1559048 1.85952381,28.0154286 4.14490476,28.0154286 C6.43080952,28.0154286 8.29033333,26.1559048 8.29033333,23.8705238 C8.29033333,23.2382857 8.14419048,22.6411429 7.88961905,22.1047619 L11.739619,18.2542381 C12.234619,18.4637619 12.7788571,18.5800476 13.3498095,18.5800476 C14.9579048,18.5800476 16.3512381,17.6581429 17.0384762,16.3171905 L23.606,17.5937143 C24.092619,19.3416667 25.6949524,20.6302381 27.5958571,20.6302381 C29.8812381,20.6302381 31.7407619,18.7707143 31.7407619,16.4853333 C31.7407619,15.9515714 31.636,15.4434762 31.4510952,14.9741429 L38.3805714,8.04519048 C38.8153333,8.2002381 39.2820476,8.28980952 39.7691905,8.28980952 C42.0545714,8.28980952 43.9140952,6.43028571 43.9140952,4.14490476 C43.9140952,1.85952381 42.0550952,0 39.7697143,0 L39.7697143,0 Z M4.14490476,25.1973333 C3.41314286,25.1973333 2.81809524,24.6017619 2.81809524,23.8705238 C2.81809524,23.1387619 3.41314286,22.5437143 4.14490476,22.5437143 C4.87666667,22.5437143 5.4722381,23.1387619 5.4722381,23.8705238 C5.4722381,24.6022857 4.87719048,25.1973333 4.14490476,25.1973333 L4.14490476,25.1973333 Z M13.3498095,15.7624762 C12.6180476,15.7624762 12.0224762,15.1669048 12.0224762,14.4356667 C12.0224762,13.7039048 12.6180476,13.1088571 13.3498095,13.1088571 C14.0815714,13.1088571 14.6771429,13.7039048 14.6771429,14.4356667 C14.6771429,15.1669048 14.0815714,15.7624762 13.3498095,15.7624762 L13.3498095,15.7624762 Z M27.5958571,17.8121429 C26.8640952,17.8121429 26.2690476,17.2165714 26.2690476,16.4853333 C26.2690476,15.7535714 26.8640952,15.1585238 27.5958571,15.1585238 C28.3270952,15.1585238 28.9226667,15.7535714 28.9226667,16.4853333 C28.9226667,17.2165714 28.3270952,17.8121429 27.5958571,17.8121429 L27.5958571,17.8121429 Z M39.7697143,5.47171429 C39.0379524,5.47171429 38.4429048,4.87666667 38.4429048,4.14490476 C38.4429048,3.41314286 39.0379524,2.81809524 39.7697143,2.81809524 C40.5009524,2.81809524 41.0965238,3.41314286 41.0965238,4.14490476 C41.0965238,4.87666667 40.5009524,5.47171429 39.7697143,5.47171429 L39.7697143,5.47171429 Z" id="Shape"></path>
                </g>
            </g>
        </g>
    </g>
</svg>