<?xml version="1.0" encoding="UTF-8" standalone="no"?>
<svg width="44px" height="41px" viewBox="0 0 44 41" version="1.1" xmlns="http://www.w3.org/2000/svg" xmlns:xlink="http://www.w3.org/1999/xlink" xmlns:sketch="http://www.bohemiancoding.com/sketch/ns">
    <!-- Generator: Sketch 3.3.2 (12043) - http://www.bohemiancoding.com/sketch -->
    <title>icon--settings</title>
    <desc>Created with Sketch.</desc>
    <defs></defs>
    <g id="Page-1" stroke="none" stroke-width="1" fill="none" fill-rule="evenodd" sketch:type="MSPage">
        <g id="Dashboard" sketch:type="MSArtboardGroup" transform="translate(-634.000000, -1252.000000)" fill="#84849D">
            <g id="MENU--sm" sketch:type="MSLayerGroup" transform="translate(-1.000000, 1242.000000)">
                <g id="icon--settings" transform="translate(635.000000, 10.000000)" sketch:type="MSShapeGroup">
                    <path d="M9.00777778,31.8156667 L9.00777778,33.0201667 C9.00777778,34.8492222 9.00961111,36.6788889 9.00594444,38.5085556 C9.00594444,38.8128889 9.01938889,39.1245556 8.9595,39.4191111 C8.82688889,40.0717778 8.21516667,40.5508889 7.57166667,40.5521111 C6.88722222,40.5545556 6.26877778,40.0308333 6.16061111,39.3268333 C6.11966667,39.0616111 6.13555556,38.786 6.13555556,38.5152778 C6.13433333,36.6183889 6.13494444,34.7208889 6.13494444,32.8233889 L6.13494444,31.8138333 C2.54955556,30.7083333 0.383166667,28.4227778 0.386222222,24.6644444 C0.389277778,20.9048889 2.55383333,18.6168889 6.13494444,17.5260556 L6.13494444,16.4034444 C6.13494444,11.693 6.13494444,6.98377778 6.13555556,2.27394444 C6.13555556,1.969 6.11661111,1.66038889 6.15938889,1.36033333 C6.26205556,0.642277778 6.85116667,0.142388889 7.55883333,0.138111111 C8.26222222,0.133222222 8.86294444,0.627611111 8.97661111,1.34322222 C9.02427778,1.64144444 9.00655556,1.95127778 9.00655556,2.25622222 C9.00838889,6.96605556 9.00777778,11.6758889 9.00777778,16.3851111 L9.00777778,17.5107778 C12.5882778,18.6480556 14.7785,20.9256667 14.7406111,24.7542778 C14.7039444,28.4845 12.5375556,30.7065 9.00777778,31.8156667 L9.00777778,31.8156667 Z M11.8775556,24.7096667 C11.8952778,22.3092222 10.0020556,20.3640556 7.60955556,20.3261667 C5.24638889,20.2888889 3.27555556,22.2365 3.25783333,24.6259444 C3.24072222,27.0331111 5.14188889,28.9807222 7.52522222,28.9978333 C9.92322222,29.0155556 11.8598333,27.1076667 11.8775556,24.7096667 L11.8775556,24.7096667 Z" id="Shape"></path>
                    <path d="M23.4428333,17.3696111 L23.4428333,18.6327778 C23.4428333,25.2065 23.4434444,31.7796111 23.4416111,38.3527222 C23.4416111,38.6912778 23.463,39.0359444 23.408,39.3665556 C23.2912778,40.0656667 22.6422778,40.5759444 21.9633333,40.5521111 C21.3143333,40.5295 20.7227778,40.0393889 20.6103333,39.38 C20.5541111,39.0493889 20.5718333,38.7053333 20.5718333,38.3667778 C20.57,31.7594444 20.5706111,25.1521111 20.5706111,18.5453889 L20.5706111,17.3934444 C16.8886667,16.2158333 14.6764444,13.8373889 14.8383889,9.87677778 C14.9856667,6.29505556 17.1276111,4.15311111 20.5718333,3.08305556 C20.5718333,2.64611111 20.5577778,2.17861111 20.5748889,1.71172222 C20.6121667,0.722944444 21.1933333,0.111833333 22.0513333,0.1375 C22.8665556,0.162555556 23.4037222,0.759 23.4385556,1.69888889 C23.4550556,2.13705556 23.4422222,2.57644444 23.4422222,3.05922222 C27.1559444,4.257 29.3675556,6.66172222 29.1658889,10.6724444 C28.9874444,14.2138333 26.8497778,16.3093333 23.4428333,17.3696111 L23.4428333,17.3696111 Z M26.3162778,10.1823333 C26.2979444,7.79288889 24.3265,5.85016667 21.9608889,5.88927778 C19.5659444,5.92838889 17.6782222,7.87172222 17.6971667,10.2764444 C17.7161111,12.6713889 19.6582222,14.5811111 22.0531667,14.5603333 C24.4377222,14.5395556 26.3352222,12.5913333 26.3162778,10.1823333 L26.3162778,10.1823333 Z" id="Shape"></path>
                    <path d="M35.0099444,23.3016667 L35.0099444,22.1173333 C35.0099444,15.5454444 35.0099444,8.97355556 35.0111667,2.40105556 C35.0111667,2.06188889 34.9891667,1.71966667 35.0325556,1.386 C35.1254444,0.662444444 35.7066111,0.154611111 36.4106111,0.138111111 C37.1561667,0.120388889 37.7697222,0.647166667 37.8638333,1.41655556 C37.9011111,1.71722222 37.8821667,2.02522222 37.8821667,2.33016667 C37.8827778,8.93627778 37.8827778,15.5423889 37.8827778,22.1485 L37.8827778,23.2833333 C41.5023889,24.4279444 43.7011667,26.7495556 43.6192778,30.6185 C43.5416667,34.2882222 41.4003333,36.5108333 37.8815556,37.5827222 C37.8815556,38.0532778 37.8968333,38.5207778 37.8778889,38.9864444 C37.8406111,39.908 37.2765556,40.5301111 36.4815,40.5533333 C35.6534444,40.5765556 35.0484444,39.9257222 35.0136111,38.9540556 C34.9983333,38.5165 35.0111667,38.0765 35.0111667,37.5992222 C31.4007222,36.4686667 29.1976667,34.1501111 29.2703889,30.2836111 C29.3394444,26.6120556 31.482,24.3918889 35.0099444,23.3016667 L35.0099444,23.3016667 Z M36.4521667,26.1323333 C34.0321667,26.1286667 32.1377222,28.0182222 32.1365,30.4363889 C32.1358889,32.8594444 34.0199444,34.7496111 36.4393333,34.7520556 C38.8599444,34.7557222 40.7495,32.8710556 40.7543889,30.448 C40.7592778,28.0292222 38.8709444,26.1353889 36.4521667,26.1323333 L36.4521667,26.1323333 Z" id="Shape"></path>
                </g>
            </g>
        </g>
    </g>
</svg>