<?xml version="1.0" encoding="UTF-8" standalone="no"?>
<svg width="358px" height="358px" viewBox="0 0 358 358" version="1.1" xmlns="http://www.w3.org/2000/svg" xmlns:xlink="http://www.w3.org/1999/xlink" xmlns:sketch="http://www.bohemiancoding.com/sketch/ns">
    <!-- Generator: Sketch 3.3.2 (12043) - http://www.bohemiancoding.com/sketch -->
    <title>phone-icon</title>
    <desc>Created with Sketch.</desc>
    <defs>
        <radialGradient cx="50%" cy="44.0922619%" fx="50%" fy="44.0922619%" r="44.0427765%" id="radialGradient-1">
            <stop stop-color="#F4F1FF" offset="0%"></stop>
            <stop stop-color="#FFFFFF" offset="100%"></stop>
        </radialGradient>
    </defs>
    <g id="Page-1" stroke="none" stroke-width="1" fill="none" fill-rule="evenodd" sketch:type="MSPage">
        <g id="Dashboard" sketch:type="MSArtboardGroup" transform="translate(-196.000000, -398.000000)">
            <g id="dashboardBody" sketch:type="MSLayerGroup" transform="translate(-82.000000, 140.000000)">
                <g id="phone-icon" transform="translate(278.000000, 258.000000)" sketch:type="MSShapeGroup">
                    <circle id="Oval-61" fill="url(#radialGradient-1)" cx="179" cy="179" r="179"></circle>
                    <g id="music-phone" transform="translate(143.000000, 119.000000)">
                        <rect id="Rectangle-113" stroke="#463297" stroke-width="3" fill="#FFFFFF" x="0" y="0" width="72" height="130" rx="8"></rect>
                        <rect id="Rectangle-113-Copy" stroke="#463297" x="6" y="16" width="60" height="90" rx="8"></rect>
                        <circle id="Oval-60" stroke="#463297" stroke-width="3" cx="36" cy="117" r="6"></circle>
                        <g id="Shape-+-Shape-+-Shape" transform="translate(19.000000, 47.000000)" fill="#463297">
                            <path d="M6.4,34.0965517 C3.14482759,34.0965517 0.496551724,31.4482759 0.496551724,28.1931034 C0.496551724,24.937931 3.14482759,22.2896552 6.4,22.2896552 C9.65517241,22.2896552 12.3034483,24.937931 12.3034483,28.1931034 C12.3034483,31.4482759 9.6,34.0965517 6.4,34.0965517 L6.4,34.0965517 Z M6.4,25.2689655 C4.8,25.2689655 3.47586207,26.5931034 3.47586207,28.1931034 C3.47586207,29.7931034 4.8,31.1172414 6.4,31.1172414 C8,31.1172414 9.32413793,29.7931034 9.32413793,28.1931034 C9.32413793,26.5931034 8,25.2689655 6.4,25.2689655 L6.4,25.2689655 Z" id="Shape"></path>
                            <path d="M25.6,30.6206897 C22.3448276,30.6206897 19.6965517,27.9724138 19.6965517,24.7172414 C19.6965517,21.462069 22.3448276,18.8137931 25.6,18.8137931 C28.8551724,18.8137931 31.5034483,21.5172414 31.5034483,24.7172414 C31.5034483,27.9172414 28.8551724,30.6206897 25.6,30.6206897 L25.6,30.6206897 Z M25.6,21.8482759 C24,21.8482759 22.6758621,23.1724138 22.6758621,24.7724138 C22.6758621,26.3724138 24,27.6965517 25.6,27.6965517 C27.2,27.6965517 28.5241379,26.3724138 28.5241379,24.7724138 C28.5241379,23.1724138 27.2551724,21.8482759 25.6,21.8482759 L25.6,21.8482759 Z" id="Shape"></path>
                            <path d="M10.7586207,29.6827586 C9.93103448,29.6827586 9.26896552,29.0206897 9.26896552,28.1931034 L9.26896552,9.15862069 C9.26896552,7.77931034 10.1517241,6.56551724 11.4206897,6.06896552 L27.0344828,0.275862069 C28.0275862,-0.110344828 29.1862069,0.0551724138 30.0689655,0.662068966 C30.9517241,1.26896552 31.5034483,2.26206897 31.5034483,3.36551724 L31.5034483,24.7172414 C31.5034483,25.5448276 30.8413793,26.2068966 30.0137931,26.2068966 C29.1862069,26.2068966 28.5241379,25.5448276 28.5241379,24.7172414 L28.5241379,3.42068966 C28.5241379,3.31034483 28.4689655,3.2 28.4137931,3.14482759 C28.3586207,3.08965517 28.2482759,3.08965517 28.137931,3.08965517 L12.4689655,8.88275862 C12.3586207,8.93793103 12.2482759,9.04827586 12.2482759,9.15862069 L12.2482759,28.1931034 C12.2482759,29.0206897 11.5862069,29.6827586 10.7586207,29.6827586 L10.7586207,29.6827586 Z" id="Shape"></path>
                        </g>
                        <rect id="Rectangle-114" stroke="#463297" x="24" y="7" width="24" height="4" rx="8"></rect>
                    </g>
                </g>
            </g>
        </g>
    </g>
</svg>